<svg id="visual" viewBox="0 0 900 600" width="900" height="600" xmlns="http://www.w3.org/2000/svg" xmlns:xlink="http://www.w3.org/1999/xlink" version="1.1"><rect x="0" y="0" width="900" height="600" fill="#0b5e75"></rect><defs><linearGradient id="grad1_0" x1="33.3%" y1="0%" x2="100%" y2="100%"><stop offset="20%" stop-color="#0b5e75" stop-opacity="1"></stop><stop offset="80%" stop-color="#0b5e75" stop-opacity="1"></stop></linearGradient></defs><defs><linearGradient id="grad2_0" x1="0%" y1="0%" x2="66.7%" y2="100%"><stop offset="20%" stop-color="#0b5e75" stop-opacity="1"></stop><stop offset="80%" stop-color="#0b5e75" stop-opacity="1"></stop></linearGradient></defs><g transform="translate(900, 0)"><path d="M0 486.7C-50.9 479.6 -101.8 472.4 -146.5 450.8C-191.2 429.2 -229.7 393.1 -259.2 356.8C-288.7 320.4 -309.3 283.8 -346.3 251.6C-383.3 219.4 -436.8 191.6 -462.9 150.4C-489.1 109.2 -487.9 54.6 -486.7 0L0 0Z" fill="#059499"></path></g><g transform="translate(0, 600)"><path d="M0 -486.7C50.8 -482.2 101.7 -477.6 150.4 -462.9C199.2 -448.2 245.8 -423.5 283.3 -389.9C320.8 -356.4 349.2 -314.2 374.6 -272.1C399.9 -230.1 422.2 -188.4 440.3 -143.1C458.5 -97.8 472.6 -48.9 486.7 0L0 0Z" fill="#059499"></path></g></svg>